<svg width="25" height="24" viewBox="0 0 25 24" fill="none" xmlns="http://www.w3.org/2000/svg">
<path d="M21.0292 10C21.0292 17 12.0167 23 12.0167 23C12.0167 23 3.00417 17 3.00417 10C3.00417 7.61305 3.9537 5.32387 5.64387 3.63604C7.33405 1.94821 9.62641 1 12.0167 1C14.4069 1 16.6993 1.94821 18.3895 3.63604C20.0797 5.32387 21.0292 7.61305 21.0292 10Z" stroke="#FAD24E" stroke-width="2" stroke-linecap="round" stroke-linejoin="round"/>
<path d="M12.0167 13C13.6758 13 15.0208 11.6569 15.0208 10C15.0208 8.34315 13.6758 7 12.0167 7C10.3575 7 9.01251 8.34315 9.01251 10C9.01251 11.6569 10.3575 13 12.0167 13Z" stroke="#FAD24E" stroke-width="2" stroke-linecap="round" stroke-linejoin="round"/>
</svg>
